<svg width="20" height="18" viewBox="0 0 20 18" fill="none" xmlns="http://www.w3.org/2000/svg">
<path fill-rule="evenodd" clip-rule="evenodd" d="M14.939 0C16.28 0 17.57 0.53 18.519 1.481C19.469 2.43 20 3.71 20 5.05V12.95C20 15.74 17.73 18 14.939 18H5.06C2.269 18 0 15.74 0 12.95V5.05C0 2.26 2.259 0 5.06 0H14.939ZM16.5319 6.54033L16.6119 6.46033C16.8509 6.17033 16.8509 5.75033 16.6009 5.46033C16.4619 5.31133 16.2709 5.22033 16.0719 5.20033C15.8619 5.18933 15.6619 5.26033 15.5109 5.40033L11.0019 9.00033C10.4219 9.48133 9.59088 9.48133 9.00188 9.00033L4.50188 5.40033C4.19088 5.17033 3.76088 5.20033 3.50188 5.47033C3.23188 5.74033 3.20188 6.17033 3.43088 6.47033L3.56188 6.60033L8.11188 10.1503C8.67188 10.5903 9.35088 10.8303 10.0619 10.8303C10.7709 10.8303 11.4619 10.5903 12.0209 10.1503L16.5319 6.54033Z" fill="white"/>
</svg>
