<svg width="23" height="23" viewBox="0 0 23 23" fill="none" xmlns="http://www.w3.org/2000/svg">
<path d="M0.646484 1.41953C0.646484 0.991514 0.993467 0.644531 1.42148 0.644531H2.10094C3.2277 0.644531 3.87465 1.37781 4.24938 2.10875C4.50619 2.60964 4.6911 3.22069 4.8439 3.74983H20.8009C21.8293 3.74983 22.5725 4.73317 22.292 5.72264L19.9739 13.8981C19.5959 15.2319 18.3781 16.1525 16.9916 16.1525H9.11877C7.72096 16.1525 6.49606 15.217 6.12811 13.8685L5.13236 10.2193C5.12623 10.2027 5.12062 10.1858 5.11555 10.1686L3.52008 4.74709C3.46533 4.56722 3.41496 4.3929 3.36632 4.22458C3.21155 3.68901 3.07439 3.21438 2.87008 2.81588C2.62309 2.33409 2.39628 2.19453 2.10094 2.19453H1.42148C0.993467 2.19453 0.646484 1.84756 0.646484 1.41953Z" fill="#040034"/>
<path d="M9.17461 22.3492C10.4587 22.3492 11.4996 21.3082 11.4996 20.0242C11.4996 18.7402 10.4587 17.6992 9.17461 17.6992C7.89054 17.6992 6.84961 18.7402 6.84961 20.0242C6.84961 21.3082 7.89054 22.3492 9.17461 22.3492Z" fill="#040034"/>
<path d="M16.9246 22.3492C18.2086 22.3492 19.2496 21.3082 19.2496 20.0242C19.2496 18.7402 18.2086 17.6992 16.9246 17.6992C15.6406 17.6992 14.5996 18.7402 14.5996 20.0242C14.5996 21.3082 15.6406 22.3492 16.9246 22.3492Z" fill="#040034"/>
</svg>
