<svg width="23" height="28" viewBox="0 0 23 28" fill="none" xmlns="http://www.w3.org/2000/svg">
<path d="M22.1562 21.2812C22.1562 21.5382 22.0542 21.7846 21.8725 21.9663C21.6908 22.1479 21.4444 22.25 21.1875 22.25H1.8125C1.55557 22.25 1.30917 22.1479 1.12749 21.9663C0.945815 21.7846 0.84375 21.5382 0.84375 21.2812C0.84375 21.0243 0.945815 20.7779 1.12749 20.5962C1.30917 20.4146 1.55557 20.3125 1.8125 20.3125H2.78125V11.7924C2.78424 9.65051 3.57617 7.58474 5.00576 5.98971C6.43536 4.39468 8.40242 3.38217 10.5312 3.14557V1.90625C10.5312 1.64932 10.6333 1.40292 10.815 1.22124C10.9967 1.03956 11.2431 0.9375 11.5 0.9375C11.7569 0.9375 12.0033 1.03956 12.185 1.22124C12.3667 1.40292 12.4688 1.64932 12.4688 1.90625V3.15032C14.5997 3.39425 16.5666 4.41282 17.9955 6.01234C19.4244 7.61186 20.2157 9.68075 20.2188 11.8256V20.3125H21.1875C21.4444 20.3125 21.6908 20.4146 21.8725 20.5962C22.0542 20.7779 22.1562 21.0243 22.1562 21.2812ZM11.5 23.2188C11.1168 23.2188 10.7422 23.3324 10.4236 23.5453C10.105 23.7582 9.85663 24.0608 9.70998 24.4148C9.56334 24.7688 9.52497 25.1584 9.59973 25.5342C9.67449 25.9101 9.85902 26.2553 10.13 26.5263C10.4009 26.7972 10.7462 26.9818 11.122 27.0565C11.4979 27.1313 11.8874 27.0929 12.2414 26.9463C12.5955 26.7996 12.8981 26.5513 13.111 26.2327C13.3239 25.914 13.4375 25.5395 13.4375 25.1562C13.4375 24.6424 13.2334 24.1496 12.87 23.7862C12.5067 23.4229 12.0139 23.2188 11.5 23.2188Z" fill="#040034"/>
</svg>
