<svg width="30" height="31" viewBox="0 0 30 31" fill="none" xmlns="http://www.w3.org/2000/svg">
<path d="M14.868 15.184C17.605 15.184 19.8237 12.918 19.8237 10.1227C19.8237 7.32751 17.605 5.06152 14.868 5.06152C12.131 5.06152 9.91217 7.32751 9.91217 10.1227C9.91217 12.918 12.131 15.184 14.868 15.184Z" fill="white"/>
<path d="M24.7782 24.0411V25.3064C24.7782 25.6419 24.6477 25.9638 24.4153 26.2011C24.183 26.4384 23.8678 26.5717 23.5393 26.5717H6.19402C5.86543 26.5717 5.5503 26.4384 5.31796 26.2011C5.08561 25.9638 4.95508 25.6419 4.95508 25.3064V24.0411C4.95508 22.0276 5.73827 20.0966 7.13235 18.6728C8.52643 17.2491 10.4172 16.4492 12.3888 16.4492H17.3445C19.3161 16.4492 21.2069 17.2491 22.6009 18.6728C23.995 20.0966 24.7782 22.0276 24.7782 24.0411Z" fill="white"/>
</svg>
