<svg width="20" height="20" viewBox="0 0 20 20" fill="none" xmlns="http://www.w3.org/2000/svg">
<path d="M9.16797 1.66602C13.308 1.66602 16.668 5.02602 16.668 9.16602C16.668 13.306 13.308 16.666 9.16797 16.666C5.02797 16.666 1.66797 13.306 1.66797 9.16602C1.66797 5.02602 5.02797 1.66602 9.16797 1.66602ZM9.16797 14.9993C12.3905 14.9993 15.0013 12.3885 15.0013 9.16602C15.0013 5.94268 12.3905 3.33268 9.16797 3.33268C5.94464 3.33268 3.33464 5.94268 3.33464 9.16602C3.33464 12.3885 5.94464 14.9993 9.16797 14.9993ZM16.2388 15.0585L18.5963 17.4152L17.4171 18.5943L15.0605 16.2368L16.2388 15.0585Z" fill="#383333"/>
</svg>
