<svg width="18" height="18" viewBox="0 0 18 18" fill="none" xmlns="http://www.w3.org/2000/svg">
<path d="M8.16797 0.666016C12.308 0.666016 15.668 4.02602 15.668 8.16602C15.668 12.306 12.308 15.666 8.16797 15.666C4.02797 15.666 0.667969 12.306 0.667969 8.16602C0.667969 4.02602 4.02797 0.666016 8.16797 0.666016ZM8.16797 13.9993C11.3905 13.9993 14.0013 11.3885 14.0013 8.16602C14.0013 4.94268 11.3905 2.33268 8.16797 2.33268C4.94464 2.33268 2.33464 4.94268 2.33464 8.16602C2.33464 11.3885 4.94464 13.9993 8.16797 13.9993ZM15.2388 14.0585L17.5963 16.4152L16.4171 17.5943L14.0605 15.2368L15.2388 14.0585Z" fill="#858182" fill-opacity="0.7"/>
</svg>
