<svg width="8" height="5" viewBox="0 0 8 5" fill="none" xmlns="http://www.w3.org/2000/svg">
<path d="M7.91048 0.794871C7.9105 0.829503 7.90369 0.863798 7.89045 0.895799C7.87721 0.9278 7.85779 0.956878 7.83331 0.981374L4.58312 4.23139C4.53367 4.28082 4.46662 4.30859 4.3967 4.30859C4.32679 4.30859 4.25973 4.28082 4.21029 4.23139L0.960091 0.981374C0.935599 0.956894 0.916168 0.92783 0.902909 0.89584C0.889649 0.86385 0.882821 0.829562 0.882813 0.794933C0.882804 0.760304 0.889617 0.726013 0.902861 0.694017C0.916106 0.662021 0.935522 0.632946 0.960003 0.608454C0.984483 0.583962 1.01355 0.564533 1.04554 0.551273C1.07753 0.538014 1.11182 0.531184 1.14644 0.531176C1.18107 0.531168 1.21536 0.537981 1.24736 0.551225C1.27936 0.56447 1.30843 0.583887 1.33292 0.608367L4.39661 3.67206L7.4603 0.608367C7.49718 0.571468 7.54417 0.546336 7.59534 0.536152C7.6465 0.525969 7.69953 0.53119 7.74773 0.551157C7.79592 0.571123 7.83711 0.604938 7.86608 0.64832C7.89505 0.691703 7.9105 0.742704 7.91048 0.794871Z" fill="#040034"/>
</svg>
